<mxfile host="app.diagrams.net" modified="2024-07-01T08:12:54.999Z" agent="Mozilla/5.0 (Windows NT 10.0; Win64; x64) AppleWebKit/537.36 (KHTML, like Gecko) Chrome/122.0.0.0 Safari/537.36 Edg/122.0.0.0" etag="vvJkHn4uwU6hELsmqrQP" version="24.6.4" type="github">
  <diagram name="第 1 页" id="0k_YxR5GHE6TN5nMwOHF">
    <mxGraphModel dx="2306" dy="1111" grid="0" gridSize="10" guides="0" tooltips="1" connect="1" arrows="1" fold="1" page="1" pageScale="1" pageWidth="827" pageHeight="1169" math="0" shadow="0">
      <root>
        <mxCell id="0" />
        <mxCell id="1" parent="0" />
      </root>
    </mxGraphModel>
  </diagram>
</mxfile>
